<svg xmlns="http://www.w3.org/2000/svg" viewBox="0 0 1600 900" preserveAspectRatio="xMidYMid slice">
  <defs>
    <linearGradient id="sky" x1="0" y1="0" x2="0" y2="1"><stop offset="0" stop-color="#0a1118"/><stop offset="0.6" stop-color="#1a2027"/><stop offset="1" stop-color="#0b0d10"/></linearGradient>
    <radialGradient id="sun" cx="62%" cy="46%" r="34%"><stop offset="0" stop-color="#ef6a34" stop-opacity=".6"/><stop offset=".42" stop-color="#c72a09" stop-opacity=".2"/><stop offset="1" stop-color="#000" stop-opacity="0"/></radialGradient>
    <linearGradient id="water" x1="0" y1="0" x2="0" y2="1"><stop offset="0" stop-color="#161b20"/><stop offset="1" stop-color="#050708"/></linearGradient>
  </defs>
  <rect width="1600" height="900" fill="url(#sky)"/><rect width="1600" height="900" fill="url(#sun)"/>
  <g opacity=".24" stroke="#d8dee3" stroke-width="2" fill="none">
    <path d="M950 120v470M950 120h300M1040 120l-90 180M1170 120l-110 290M1250 120v470"/>
    <path d="M1270 170v420M1270 170h210M1340 170l-70 160M1440 170l-90 260M1480 170v420"/>
  </g>
  <g fill="#0a0d10">
    <path d="M190 550h580l-60 98H300z"/><rect x="280" y="455" width="150" height="96" rx="4"/><rect x="436" y="483" width="80" height="68"/><rect x="530" y="500" width="55" height="52"/>
    <rect x="585" y="486" width="55" height="66"/><rect x="640" y="465" width="55" height="87"/>
    <rect x="700" y="520" width="90" height="28"/>
    <path d="M405 455l45-82h22l28 82z"/>
  </g>
  <g fill="#c72a09" opacity=".75">
    <rect x="560" y="502" width="65" height="42"/><rect x="630" y="478" width="65" height="66"/><rect x="705" y="512" width="66" height="32"/>
  </g>
  <g fill="#12171b">
    <rect x="1060" y="525" width="250" height="72" rx="7"/><rect x="1130" y="484" width="98" height="42" rx="4"/><circle cx="1110" cy="600" r="30"/><circle cx="1260" cy="600" r="30"/>
  </g>
  <path d="M0 650h1600v250H0z" fill="url(#water)"/>
  <g opacity=".35" stroke="#e65832" stroke-width="4">
    <path d="M150 690h1200M300 728h980M520 772h700"/><path d="M970 645l40 230M1030 645l80 230M1210 645l-70 230"/>
  </g>
  <g fill="#f08b5b" opacity=".55"><circle cx="918" cy="476" r="4"/><circle cx="955" cy="456" r="4"/><circle cx="998" cy="498" r="4"/><circle cx="1276" cy="430" r="4"/></g>
</svg>
